<?xml version="1.0" encoding="utf-8"?>
<!-- Generator: Adobe Illustrator 21.1.0, SVG Export Plug-In . SVG Version: 6.00 Build 0)  -->
<svg version="1.1" id="Layer_1" xmlns="http://www.w3.org/2000/svg" xmlns:xlink="http://www.w3.org/1999/xlink" x="0px" y="0px"
	 viewBox="0 0 1366 768" style="enable-background:new 0 0 1366 768;" xml:space="preserve">
<style type="text/css">
	.st0{fill:#0A0A0A;}
	.st1{fill:none;stroke:#F2EDED;stroke-width:0.5;stroke-miterlimit:10;}
	.st2{fill:none;stroke:#C6C4C4;stroke-width:6;stroke-miterlimit:10;}
	.st3{fill:none;stroke:#878484;stroke-miterlimit:10;}
	.st4{fill-rule:evenodd;clip-rule:evenodd;fill:#0A0A0A;}
	.st5{fill:#EDEBEB;}
	.st6{font-family:'NHaasGroteskTXPro-75Bd';}
	.st7{font-size:10px;}
</style>
<g>
	<rect x="-8.5" y="-8.5" class="st0" width="1383" height="785"/>
	<path d="M1374-8v784H-8V-8H1374 M1375-9H-9v786h1384V-9L1375-9z"/>
</g>
<g>
	<g>
		<line class="st1" x1="100.5" y1="-10" x2="100.5" y2="776"/>
	</g>
	<g>
		<line class="st1" x1="150.5" y1="-10" x2="150.5" y2="776"/>
	</g>
	<g>
		<line class="st1" x1="200.5" y1="-10" x2="200.5" y2="776"/>
	</g>
	<g>
		<line class="st1" x1="250.5" y1="-10" x2="250.5" y2="776"/>
	</g>
	<g>
		<line class="st1" x1="300.5" y1="-10" x2="300.5" y2="776"/>
	</g>
	<g>
		<line class="st1" x1="350.5" y1="-10" x2="350.5" y2="776"/>
	</g>
	<g>
		<line class="st1" x1="400.5" y1="-10" x2="400.5" y2="776"/>
	</g>
	<g>
		<line class="st1" x1="450.5" y1="-10" x2="450.5" y2="776"/>
	</g>
	<g>
		<line class="st1" x1="500.5" y1="-10" x2="500.5" y2="776"/>
	</g>
	<g>
		<line class="st1" x1="550.5" y1="-10" x2="550.5" y2="776"/>
	</g>
	<g>
		<line class="st1" x1="600.5" y1="-10" x2="600.5" y2="776"/>
	</g>
	<g>
		<line class="st1" x1="650.5" y1="-10" x2="650.5" y2="776"/>
	</g>
	<g>
		<line class="st1" x1="700.5" y1="-10" x2="700.5" y2="776"/>
	</g>
	<g>
		<line class="st1" x1="750.5" y1="-10" x2="750.5" y2="776"/>
	</g>
	<g>
		<line class="st1" x1="800.5" y1="-10" x2="800.5" y2="776"/>
	</g>
	<g>
		<line class="st1" x1="850.5" y1="-10" x2="850.5" y2="776"/>
	</g>
	<g>
		<line class="st1" x1="900.5" y1="-10" x2="900.5" y2="776"/>
	</g>
	<g>
		<line class="st1" x1="950.5" y1="-10" x2="950.5" y2="776"/>
	</g>
	<g>
		<line class="st1" x1="1000.5" y1="-10" x2="1000.5" y2="776"/>
	</g>
	<g>
		<line class="st1" x1="1050.5" y1="-10" x2="1050.5" y2="776"/>
	</g>
	<g>
		<line class="st1" x1="1100.5" y1="-10" x2="1100.5" y2="776"/>
	</g>
	<g>
		<line class="st1" x1="1150.5" y1="-10" x2="1150.5" y2="776"/>
	</g>
	<g>
		<line class="st1" x1="1200.5" y1="-10" x2="1200.5" y2="776"/>
	</g>
	<g>
		<line class="st1" x1="1250.5" y1="-10" x2="1250.5" y2="776"/>
	</g>
	<g>
		<line class="st1" x1="1300.5" y1="-10" x2="1300.5" y2="776"/>
	</g>
	<g>
		<line class="st1" x1="1350.5" y1="-10" x2="1350.5" y2="776"/>
	</g>
	<g>
		<line class="st1" x1="50.5" y1="-10" x2="50.5" y2="776"/>
	</g>
	<g>
		<line class="st1" x1="-0.5" y1="-10" x2="-0.5" y2="776"/>
	</g>
</g>
<g>
	<line class="st2" x1="-0.5" y1="-10.5" x2="1365.5" y2="767.5"/>
	<line class="st2" x1="50.5" y1="-10.5" x2="1416.5" y2="767.5"/>
	<line class="st2" x1="101.5" y1="-10.5" x2="1467.5" y2="767.5"/>
	<line class="st2" x1="152.5" y1="-10.5" x2="1518.5" y2="767.5"/>
	<line class="st2" x1="203.5" y1="-10.5" x2="1569.5" y2="767.5"/>
	<line class="st2" x1="254.5" y1="-10.5" x2="1620.5" y2="767.5"/>
	<line class="st2" x1="305.5" y1="-10.5" x2="1671.5" y2="767.5"/>
	<line class="st2" x1="356.5" y1="-10.5" x2="1722.5" y2="767.5"/>
	<line class="st2" x1="407.5" y1="-10.5" x2="1773.5" y2="767.5"/>
	<line class="st2" x1="458.5" y1="-10.5" x2="1824.5" y2="767.5"/>
	<line class="st2" x1="509.5" y1="-10.5" x2="1875.5" y2="767.5"/>
	<line class="st2" x1="560.5" y1="-10.5" x2="1926.5" y2="767.5"/>
	<line class="st2" x1="611.5" y1="-10.5" x2="1977.5" y2="767.5"/>
	<line class="st2" x1="662.5" y1="-10.5" x2="2028.5" y2="767.5"/>
	<line class="st2" x1="713.5" y1="-10.5" x2="2079.5" y2="767.5"/>
	<line class="st2" x1="764.5" y1="-10.5" x2="2130.5" y2="767.5"/>
	<line class="st2" x1="815.5" y1="-10.5" x2="2181.5" y2="767.5"/>
	<line class="st2" x1="866.5" y1="-10.5" x2="2232.5" y2="767.5"/>
	<line class="st2" x1="917.5" y1="-10.5" x2="2283.5" y2="767.5"/>
	<line class="st2" x1="968.5" y1="-10.5" x2="2334.5" y2="767.5"/>
	<line class="st2" x1="1019.5" y1="-10.5" x2="2385.5" y2="767.5"/>
	<line class="st2" x1="1070.5" y1="-10.5" x2="2436.5" y2="767.5"/>
	<line class="st2" x1="1121.5" y1="-10.5" x2="2487.5" y2="767.5"/>
	<line class="st2" x1="1172.5" y1="-10.5" x2="2538.5" y2="767.5"/>
	<line class="st2" x1="1223.5" y1="-10.5" x2="2589.5" y2="767.5"/>
	<line class="st2" x1="1274.5" y1="-10.5" x2="2640.5" y2="767.5"/>
	<line class="st2" x1="1325.5" y1="-10.5" x2="2691.5" y2="767.5"/>
</g>
<line class="st3" x1="1376.5" y1="-10.5" x2="2742.5" y2="767.5"/>
<line class="st3" x1="-0.5" y1="775.5" x2="1376.5" y2="-10.5"/>
<line class="st3" x1="52.5" y1="775.5" x2="1429.5" y2="-10.5"/>
<line class="st3" x1="105.5" y1="775.5" x2="1482.5" y2="-10.5"/>
<line class="st3" x1="158.5" y1="775.5" x2="1535.5" y2="-10.5"/>
<line class="st3" x1="211.5" y1="775.5" x2="1588.5" y2="-10.5"/>
<line class="st3" x1="264.5" y1="775.5" x2="1641.5" y2="-10.5"/>
<line class="st3" x1="317.5" y1="775.5" x2="1694.5" y2="-10.5"/>
<line class="st3" x1="370.5" y1="775.5" x2="1747.5" y2="-10.5"/>
<line class="st3" x1="423.5" y1="775.5" x2="1800.5" y2="-10.5"/>
<line class="st3" x1="476.5" y1="775.5" x2="1853.5" y2="-10.5"/>
<line class="st3" x1="529.5" y1="775.5" x2="1906.5" y2="-10.5"/>
<line class="st3" x1="582.5" y1="775.5" x2="1959.5" y2="-10.5"/>
<line class="st3" x1="635.5" y1="775.5" x2="2012.5" y2="-10.5"/>
<line class="st3" x1="688.5" y1="775.5" x2="2065.5" y2="-10.5"/>
<line class="st3" x1="741.5" y1="775.5" x2="2118.5" y2="-10.5"/>
<line class="st3" x1="794.5" y1="775.5" x2="2171.5" y2="-10.5"/>
<line class="st3" x1="847.5" y1="775.5" x2="2224.5" y2="-10.5"/>
<line class="st3" x1="900.5" y1="775.5" x2="2277.5" y2="-10.5"/>
<line class="st3" x1="953.5" y1="775.5" x2="2330.5" y2="-10.5"/>
<line class="st3" x1="1006.5" y1="775.5" x2="2383.5" y2="-10.5"/>
<line class="st3" x1="1059.5" y1="775.5" x2="2436.5" y2="-10.5"/>
<line class="st3" x1="1112.5" y1="775.5" x2="2489.5" y2="-10.5"/>
<line class="st3" x1="1165.5" y1="775.5" x2="2542.5" y2="-10.5"/>
<line class="st3" x1="1218.5" y1="775.5" x2="2595.5" y2="-10.5"/>
<line class="st3" x1="1271.5" y1="775.5" x2="2648.5" y2="-10.5"/>
<line class="st3" x1="1324.5" y1="775.5" x2="2701.5" y2="-10.5"/>
<line class="st3" x1="1377.5" y1="775.5" x2="2754.5" y2="-10.5"/>
<g>
	<rect x="-8.5" y="460.5" class="st4" width="108" height="316"/>
	<g>
		<path d="M99,461v315H-8V461H99 M100,460H-9v317h109V460L100,460z"/>
	</g>
</g>
<text transform="matrix(6.123234e-17 -1 1 6.123234e-17 18.6501 759.9307)"><tspan x="0" y="0" class="st5 st6 st7">The contemporary sedentary is someone who feels at home  </tspan><tspan x="0" y="12" class="st5 st6 st7">everywhere, thanks to cellphones, and the nomad is some </tspan><tspan x="0" y="24" class="st5 st6 st7">one who does not feel at home anywhere, someone who is  </tspan><tspan x="0" y="36" class="st5 st6 st7">excluded, ostracized</tspan></text>
</svg>
